<?xml version="1.0" encoding="UTF-8"?>
<svg width="95px" height="80px" viewBox="0 0 95 80" version="1.1" xmlns="http://www.w3.org/2000/svg" xmlns:xlink="http://www.w3.org/1999/xlink">
    <!-- Generator: Sketch 54.1 (76490) - https://sketchapp.com -->
    <title>Business Owners Icon</title>
    <desc>Created with Sketch.</desc>
    <g id="Desktop" stroke="none" stroke-width="1" fill="none" fill-rule="evenodd">
        <g id="Our-Specialties" transform="translate(-172.000000, -776.000000)" fill="#B89D57">
            <g id="text-and-icon" transform="translate(111.000000, 776.000000)">
                <g id="Icons/BusinessOwners" transform="translate(61.000000, 0.000000)">
                    <g id="Group-36">
                        <path d="M62.6908197,40.6325 C62.2656557,41.1521429 61.4355738,41.5153571 60.672623,41.5153571 L52.7543443,41.5153571 C52.027623,41.5153571 50.36,41.1071429 49.5831967,40.745 C48.8,40.16 43.4881148,36.3135714 38.544918,35.6996429 L38.877377,35.2357143 C39.0180328,35.0396429 39.2428689,34.8735714 39.3153279,34.9110714 C39.3888525,34.9432143 39.4666393,34.9667857 39.5444262,34.9817857 L43.9963934,35.8207143 C44.1040164,35.8410714 44.2148361,35.8453571 44.3245902,35.8314286 C44.4098361,35.8196429 52.8481148,34.7889286 56.7907377,36.9232143 C57.1370492,37.1096429 57.5590164,37.0903571 57.8861475,36.8707143 C58.2143443,36.6521429 58.3954918,36.2685714 58.3560656,35.8742857 L57.8701639,30.9242857 C57.812623,30.335 57.2904918,29.9021429 56.7044262,29.9632143 C56.1194262,30.0210714 55.6910656,30.5460714 55.7486066,31.1342857 L56.0618852,34.3153571 C54.2163115,33.7325 52.0404098,33.5064286 50.0488525,33.4485714 L55.1145902,22.1428571 L55.1870492,22.1428571 C58.0939344,22.1428571 60.6534426,24.3660714 61.2618852,27.3585714 L62.9327049,39.8139286 C62.9529508,39.9178571 63.0158197,40.2339286 62.6908197,40.6325 L62.6908197,40.6325 Z M43.5328689,41.5153571 L33.2490164,41.5153571 C32.4828689,41.5153571 31.6922131,41.1939286 31.2809016,40.7171429 C31.0379508,40.4332143 30.9452459,40.1203571 30.9921311,39.7946429 L33.1957377,27.4292857 C33.7658197,24.6135714 37.1010656,22.1428571 40.3329508,22.1428571 L40.9509836,22.1428571 L46.0529508,33.5257143 C45.1791803,33.5825 44.5270492,33.65 44.2286885,33.6842857 L40.0388525,32.8946429 C39.4591803,32.6782143 38.9146721,32.735 38.4372951,32.9342857 L38.7388525,31.5510714 C38.8645902,30.9725 38.5001639,30.4014286 37.9258197,30.275 C37.3504098,30.1485714 36.782459,30.5139286 36.6567213,31.0914286 L35.4813934,36.485 C35.4078689,36.8203571 35.4984426,37.1707143 35.7254098,37.4267857 C35.952377,37.6828571 36.2795082,37.8167857 36.6268852,37.7814286 C39.9280328,37.4546429 44.1722131,39.7528571 46.5495082,41.2657143 L43.5328689,41.5153571 Z M80,36.8182143 C80,30.4989286 74.8031967,25.3571429 68.4172131,25.3571429 L62.9508197,25.3571429 C62.919918,25.3571429 62.8954098,25.3721429 62.8666393,25.3742857 C61.5666393,22.1825 58.5563934,20 55.1870492,20 L54.4262295,20 C54.0063934,20 53.6270492,20.2475 53.4544262,20.6321429 L49.0983607,30.4764286 L49.0983607,22.1428571 C49.6865574,22.1428571 50.1639344,21.6628571 50.1639344,21.0714286 C50.1639344,20.48 49.6865574,20 49.0983607,20 L46.9672131,20 C46.3779508,20 45.9016393,20.48 45.9016393,21.0714286 C45.9016393,21.6628571 46.3779508,22.1428571 46.9672131,22.1428571 L46.9672131,30.3553571 L42.610082,20.6321429 C42.4385246,20.2475 42.0581148,20 41.6393443,20 L40.3329508,20 C36.7366393,20 33.1541803,22.3175 31.6815574,25.3571429 L26.5827869,25.3571429 C20.1957377,25.3571429 15,30.4989286 15,36.8182143 L15,57.5 C15,58.0914286 15.4763115,58.5714286 16.0655738,58.5714286 L18.1967213,58.5714286 C18.784918,58.5714286 19.2622951,58.0914286 19.2622951,57.5 C19.2622951,56.9085714 18.784918,56.4285714 18.1967213,56.4285714 L17.1311475,56.4285714 L17.1311475,36.8182143 C17.1311475,31.6807143 21.3710656,27.5 26.5827869,27.5 L31.0187705,27.5 L28.8886885,39.4507143 C28.7480328,40.4203571 29.0240164,41.3675 29.6686885,42.1175 C30.484918,43.0678571 31.857377,43.6582143 33.2490164,43.6582143 L37.3770492,43.6571429 L37.3770492,78.9285714 C37.3770492,79.52 37.8533607,80 38.442623,80 C39.0308197,80 39.5081967,79.52 39.5081967,78.9285714 L39.5081967,43.6560714 L43.6202459,43.655 L49.7483607,43.1503571 C49.7952459,43.1460714 49.8410656,43.1396429 49.8858197,43.13 C50.8480328,43.4225 51.9871311,43.6582143 52.7543443,43.6582143 L56.557377,43.6582143 L56.557377,78.9285714 C56.557377,79.52 57.0336885,80 57.6229508,80 C58.2111475,80 58.6885246,79.52 58.6885246,78.9285714 L58.6885246,43.6582143 L60.672623,43.6582143 C62.0717213,43.6582143 63.5113115,43.0046429 64.3371311,41.9921429 C64.9594262,41.2314286 65.202377,40.3089286 65.0340164,39.4635714 L63.4292623,27.5 L68.4172131,27.5 C73.6289344,27.5 77.8688525,31.6807143 77.8688525,36.8182143 L77.8688525,56.4285714 L76.8032787,56.4285714 C76.2140164,56.4285714 75.7377049,56.9085714 75.7377049,57.5 C75.7377049,58.0914286 76.2140164,58.5714286 76.8032787,58.5714286 L78.9344262,58.5714286 C79.522623,58.5714286 80,58.0914286 80,57.5 L80,36.8182143 Z" id="Fill-1"></path>
                        <path d="M74.9785495,39 L74.0214505,39 C73.4565884,39 73,39.4833684 73,40.0789474 L73,78.9210526 C73,79.5166316 73.4565884,80 74.0214505,80 C74.5852911,80 75.0418795,79.5166316 75.0418795,78.9210526 L75.0418795,41.1557368 C75.5760981,41.1212105 76,40.6518684 76,40.0789474 C76,39.4833684 75.5423902,39 74.9785495,39" id="Fill-3"></path>
                        <path d="M66,57 C65.448,57 65,57.4906667 65,58.0952381 L65,78.9047619 C65,79.5093333 65.448,80 66,80 C66.552,80 67,79.5093333 67,78.9047619 L67,58.0952381 C67,57.4906667 66.552,57 66,57" id="Fill-5"></path>
                        <path d="M66.5,10.1428571 C69.69475,10.1428571 70.8333333,12.9103571 70.8333333,15.5 C70.8333333,18.0896429 69.69475,20.8571429 66.5,20.8571429 C63.30525,20.8571429 62.1666667,18.0896429 62.1666667,15.5 C62.1666667,12.9103571 63.30525,10.1428571 66.5,10.1428571 M66.5,23 C70.3880833,23 73,19.9860714 73,15.5 C73,11.0139286 70.3880833,8 66.5,8 C62.6119167,8 60,11.0139286 60,15.5 C60,19.9860714 62.6119167,23 66.5,23" id="Fill-7"></path>
                        <path d="M84.2857143,28 L81.0714286,28 C80.48,28 80,28.4788966 80,29.0689655 C80,29.6590345 80.48,30.137931 81.0714286,30.137931 L84.2857143,30.137931 C89.4125,30.137931 92.8571429,33.144931 92.8571429,37.6206897 L92.8571429,56.862069 L91.7857143,56.862069 C91.1942857,56.862069 90.7142857,57.3409655 90.7142857,57.9310345 C90.7142857,58.5211034 91.1942857,59 91.7857143,59 L93.9285714,59 C94.52,59 95,58.5211034 95,57.9310345 L95,37.6206897 C95,31.9562414 90.5942857,28 84.2857143,28" id="Fill-9"></path>
                        <path d="M90,43 L89,43 C88.448,43 88,43.4875294 88,44.0882353 L88,78.9117647 C88,79.5124706 88.448,80 89,80 C89.552,80 90,79.5124706 90,78.9117647 L90,45.1764706 C90.552,45.1764706 91,44.6889412 91,44.0882353 C91,43.4875294 90.552,43 90,43" id="Fill-11"></path>
                        <path d="M81,61 C80.448,61 80,61.4728889 80,62.0555556 L80,78.9444444 C80,79.5271111 80.448,80 81,80 C81.552,80 82,79.5271111 82,78.9444444 L82,62.0555556 C82,61.4728889 81.552,61 81,61" id="Fill-13"></path>
                        <path d="M82.5,15.1666667 C84.9332,15.1666667 85.8,17.4048333 85.8,19.5 C85.8,21.5951667 84.9332,23.8333333 82.5,23.8333333 C80.0668,23.8333333 79.2,21.5951667 79.2,19.5 C79.2,17.4048333 80.0668,15.1666667 82.5,15.1666667 M82.5,26 C85.7901,26 88,23.3880833 88,19.5 C88,15.6119167 85.7901,13 82.5,13 C79.2099,13 77,15.6119167 77,19.5 C77,23.3880833 79.2099,26 82.5,26" id="Fill-15"></path>
                        <path d="M21,39 L20,39 C19.448,39 19,39.4833684 19,40.0789474 C19,40.6745263 19.448,41.1578947 20,41.1578947 L20,78.9210526 C20,79.5166316 20.448,80 21,80 C21.552,80 22,79.5166316 22,78.9210526 L22,40.0789474 C22,39.4833684 21.552,39 21,39" id="Fill-17"></path>
                        <path d="M29,57 C28.448,57 28,57.4906667 28,58.0952381 L28,78.9047619 C28,79.5093333 28.448,80 29,80 C29.552,80 30,79.5093333 30,78.9047619 L30,58.0952381 C30,57.4906667 29.552,57 29,57" id="Fill-19"></path>
                        <path d="M28.5,10.1428571 C31.69475,10.1428571 32.8333333,12.9103571 32.8333333,15.5 C32.8333333,18.0896429 31.69475,20.8571429 28.5,20.8571429 C25.30525,20.8571429 24.1666667,18.0896429 24.1666667,15.5 C24.1666667,12.9103571 25.30525,10.1428571 28.5,10.1428571 M28.5,23 C32.3880833,23 35,19.9860714 35,15.5 C35,11.0139286 32.3880833,8 28.5,8 C24.6119167,8 22,11.0139286 22,15.5 C22,19.9860714 24.6119167,23 28.5,23" id="Fill-21"></path>
                        <path d="M15,29.0689655 C15,28.4788966 14.52,28 13.9285714,28 L10.7142857,28 C4.40571429,28 0,31.9562414 0,37.6206897 L0,57.9310345 C0,58.5211034 0.48,59 1.07142857,59 L3.21428571,59 C3.80571429,59 4.28571429,58.5211034 4.28571429,57.9310345 C4.28571429,57.3409655 3.80571429,56.862069 3.21428571,56.862069 L2.14285714,56.862069 L2.14285714,37.6206897 C2.14285714,33.144931 5.5875,30.137931 10.7142857,30.137931 L13.9285714,30.137931 C14.52,30.137931 15,29.6590345 15,29.0689655" id="Fill-23"></path>
                        <path d="M6,43 L5,43 C4.448,43 4,43.4875294 4,44.0882353 C4,44.6889412 4.448,45.1764706 5,45.1764706 L5,78.9117647 C5,79.5124706 5.448,80 6,80 C6.552,80 7,79.5124706 7,78.9117647 L7,44.0882353 C7,43.4875294 6.552,43 6,43" id="Fill-25"></path>
                        <path d="M14,61 C13.448,61 13,61.4728889 13,62.0555556 L13,78.9444444 C13,79.5271111 13.448,80 14,80 C14.552,80 15,79.5271111 15,78.9444444 L15,62.0555556 C15,61.4728889 14.552,61 14,61" id="Fill-27"></path>
                        <path d="M12.5,15.1666667 C14.9332,15.1666667 15.8,17.4048333 15.8,19.5 C15.8,21.5951667 14.9332,23.8333333 12.5,23.8333333 C10.0668,23.8333333 9.2,21.5951667 9.2,19.5 C9.2,17.4048333 10.0668,15.1666667 12.5,15.1666667 M12.5,26 C15.7901,26 18,23.3880833 18,19.5 C18,15.6119167 15.7901,13 12.5,13 C9.2099,13 7,15.6119167 7,19.5 C7,23.3880833 9.2099,26 12.5,26" id="Fill-29"></path>
                        <path d="M48.5,2.125 C52.4535714,2.125 53.8571429,5.559 53.8571429,8.5 C53.8571429,11.441 52.4535714,14.875 48.5,14.875 C44.5464286,14.875 43.1428571,11.441 43.1428571,8.5 C43.1428571,5.559 44.5464286,2.125 48.5,2.125 M48.5,17 C52.9860714,17 56,13.5840625 56,8.5 C56,3.4159375 52.9860714,0 48.5,0 C44.0139286,0 41,3.4159375 41,8.5 C41,13.5840625 44.0139286,17 48.5,17" id="Fill-31"></path>
                        <path d="M49.6250437,53 L47.3749563,53 C46.7910587,53 46.3050398,53.4276562 46.2544128,53.987065 L44.0043255,78.8256822 C43.9503234,79.4185692 44.4082162,79.94234 45.0281152,79.9941771 C45.6457642,80.0568136 46.1925354,79.6064787 46.2454125,79.0114318 L48.4066214,55.1598798 L48.5933786,55.1598798 L50.7545875,79.0114318 C50.8052145,79.5740805 51.2968586,79.9984969 51.874006,79.9984969 C51.9066322,79.9984969 51.9392585,79.9974169 51.9718848,79.9941771 C52.5917838,79.94234 53.0496766,79.4185692 52.9956745,78.8256822 L50.7455872,53.987065 C50.6949602,53.4276562 50.2089413,53 49.6250437,53" id="Fill-34"></path>
                    </g>
                </g>
            </g>
        </g>
    </g>
</svg>