<?xml version="1.0" encoding="UTF-8"?>
<svg width="98px" height="79px" viewBox="0 0 98 79" version="1.1" xmlns="http://www.w3.org/2000/svg" xmlns:xlink="http://www.w3.org/1999/xlink">
    <!-- Generator: Sketch 54.1 (76490) - https://sketchapp.com -->
    <title>Group 6</title>
    <desc>Created with Sketch.</desc>
    <g id="Desktop" stroke="none" stroke-width="1" fill="none" fill-rule="evenodd">
        <g id="Our-Specialties" transform="translate(-737.000000, -1130.000000)" fill="#B89D57">
            <g id="text-and-icon" transform="translate(691.000000, 1130.000000)">
                <g id="Group-6" transform="translate(46.000000, 0.000000)">
                    <polygon id="Fill-1" points="31.1464632 37.5530323 27.4405158 35.4498065 24.2245684 37.3052903 27.9305158 39.4136774"></polygon>
                    <polygon id="Fill-2" points="69.5361579 15.0908387 66.15 13.0392258 62.9288947 14.8972903 66.3202105 16.9489032"></polygon>
                    <path d="M28.1670053,48.876129 C32.5176895,47.3974194 38.4492684,47.7019355 43.1842158,49.6735484 L36.3732158,53.6090323 L28.1670053,48.876129 Z M12.1156368,31.5883871 C14.5192158,33.1341935 15.8963737,35.0129032 15.8963737,36.8116129 C15.8963737,38.4683871 14.7564789,39.6735484 13.5985316,40.4683871 L5.16279474,35.603871 L12.1156368,31.5883871 Z M30.8259,25.5212903 C29.2063211,29.4670968 30.2559526,33.5419355 33.7297947,36.2696774 C36.4402684,38.396129 40.3190053,39.5006452 44.5072158,39.5006452 C47.1712684,39.5006452 49.9616895,39.0412903 52.6515316,38.1277419 L57.9100053,41.1651613 L45.8740579,48.1174194 C39.6097947,44.8167742 30.9729,44.4683871 25.3972158,47.2787097 L15.9969526,41.8541935 C17.6036368,40.44 18.4753211,38.7032258 18.4753211,36.8116129 C18.4753211,34.4348387 17.0620579,32.0916129 14.5682158,30.1716129 L26.7202158,23.1496774 L30.8259,25.5212903 Z M64.4605316,26.6 L49.6728474,18.0606452 C54.4696895,17.3174194 59.1092158,18.1587097 61.9821632,20.4193548 C64.0865842,22.0735484 64.9273211,24.2593548 64.4605316,26.6 L64.4605316,26.6 Z M33.1005316,26.8348387 L49.5387421,36.3316129 C44.1513211,37.5522581 38.5730579,36.796129 35.3210053,34.2387097 C32.8452158,32.2929032 32.0895842,29.6116129 33.1005316,26.8348387 L33.1005316,26.8348387 Z M29.2991632,21.6580645 L40.0224263,15.4670968 L72.5739,34.2670968 L72.5739,54.8735484 L61.8196895,61.0877419 L61.8196895,40.44 L29.2991632,21.6580645 Z M52.1357421,8.4683871 C55.5760579,10.2774194 59.7178474,11.2374194 63.7049,11.2374194 C66.9827421,11.2374194 70.1006895,10.5819355 72.6151632,9.31483871 L82.0051105,14.7341935 C80.4010053,16.1458065 79.5293211,17.8851613 79.5293211,19.7741935 C79.5293211,22.1612903 80.9554789,24.5174194 83.4673737,26.4425806 L73.8607947,32.0296774 L66.7944789,27.9470968 C67.8363737,24.3806452 66.6835842,20.8322581 63.5733737,18.3883871 C59.5579526,15.2348387 52.7985316,14.3419355 46.3717947,16.1148387 L46.3821105,16.1587097 L42.6013737,13.9754839 L52.1357421,8.4683871 Z M69.8402158,7.71483871 C65.4895316,9.19354839 59.5553737,8.88645161 54.8204263,6.91483871 L61.6340053,2.97935484 L69.8402158,7.71483871 Z M85.9199526,25.0180645 C83.4957421,23.4645161 82.1082684,21.5806452 82.1082684,19.7741935 C82.1082684,18.1174194 83.2481632,16.9148387 84.4086895,16.1174194 L92.8495842,20.9870968 L85.9199526,25.0180645 Z M96.0681105,27.7716129 L94.7786368,25.5393548 L75.1528474,36.8812903 L75.1528474,34.2645161 L97.9971632,20.9767742 L61.6340053,0.00129032258 L40.0198474,12.483871 L24.1386895,21.6580645 L-0.000257894737,35.603871 L36.3732158,56.5870968 L59.2407421,43.3767742 L59.2407421,46.0709677 L36.3732158,59.2812903 L3.22600526,40.1587097 L1.93653158,42.396129 L36.3732158,62.2619355 L59.2407421,49.0464516 L59.2407421,51.5754839 L36.3732158,64.7858065 L3.22600526,45.6606452 L1.93653158,47.8980645 L36.3732158,67.763871 L59.2407421,54.5509677 L59.2407421,57.0774194 L36.3732158,70.2877419 L3.22600526,51.1651613 L1.93653158,53.4025806 L36.3732158,73.2658065 L59.2407421,60.0529032 L59.2407421,62.5819355 L36.3732158,75.7922581 L3.22600526,56.6670968 L1.93653158,58.9045161 L36.3732158,78.7703226 L59.2407421,65.56 L75.1528474,56.3651613 L96.0681105,44.2825806 L94.7786368,42.0477419 L75.1528474,53.3870968 L75.1528474,50.8632258 L96.0681105,38.7780645 L94.7786368,36.5458065 L75.1528474,47.8851613 L75.1528474,45.3587097 L96.0681105,33.276129 L94.7786368,31.043871 L75.1528474,42.3806452 L75.1528474,39.8567742 L96.0681105,27.7716129 Z" id="Fill-3"></path>
                </g>
            </g>
        </g>
    </g>
</svg>