<?xml version="1.0" encoding="UTF-8"?>
<svg width="88px" height="80px" viewBox="0 0 88 80" version="1.1" xmlns="http://www.w3.org/2000/svg" xmlns:xlink="http://www.w3.org/1999/xlink">
    <!-- Generator: Sketch 54.1 (76490) - https://sketchapp.com -->
    <title>Group 33</title>
    <desc>Created with Sketch.</desc>
    <g id="Desktop" stroke="none" stroke-width="1" fill="none" fill-rule="evenodd">
        <g id="Our-Specialties" transform="translate(-176.000000, -1130.000000)" fill="#B89D57">
            <g id="text-and-icon" transform="translate(111.000000, 1130.000000)">
                <g id="Group-33" transform="translate(65.000000, 0.000000)">
                    <path d="M52.6990588,47.016 L73.5162353,47.016 L73.5162353,41.3876129 L52.6990588,41.3876129 L52.6990588,47.016 Z M50.7578824,48.9514839 L75.4574118,48.9514839 L75.4574118,39.452129 L50.7578824,39.452129 L50.7578824,48.9514839 Z" id="Fill-1"></path>
                    <polygon id="Fill-2" points="62.1150588 55.9114839 64.0562353 55.9114839 64.0562353 53.9734194 62.1150588 53.9734194"></polygon>
                    <polygon id="Fill-3" points="56.4261176 55.9114839 58.3672941 55.9114839 58.3672941 53.9734194 56.4261176 53.9734194"></polygon>
                    <polygon id="Fill-4" points="67.804 55.9114839 69.7451765 55.9114839 69.7451765 53.9734194 67.804 53.9734194"></polygon>
                    <polygon id="Fill-5" points="73.4955294 55.9114839 75.4367059 55.9114839 75.4367059 53.9734194 73.4955294 53.9734194"></polygon>
                    <polygon id="Fill-6" points="50.7371765 55.9114839 52.6783529 55.9114839 52.6783529 53.9734194 50.7371765 53.9734194"></polygon>
                    <polygon id="Fill-7" points="62.1150588 61.0727742 64.0562353 61.0727742 64.0562353 59.1347097 62.1150588 59.1347097"></polygon>
                    <polygon id="Fill-8" points="56.4261176 61.0727742 58.3672941 61.0727742 58.3672941 59.1347097 56.4261176 59.1347097"></polygon>
                    <polygon id="Fill-9" points="67.804 61.0727742 69.7451765 61.0727742 69.7451765 59.1347097 67.804 59.1347097"></polygon>
                    <polygon id="Fill-10" points="73.4955294 61.0727742 75.4367059 61.0727742 75.4367059 59.1347097 73.4955294 59.1347097"></polygon>
                    <polygon id="Fill-11" points="50.7371765 61.0727742 52.6783529 61.0727742 52.6783529 59.1347097 50.7371765 59.1347097"></polygon>
                    <polygon id="Fill-12" points="62.1150588 66.2340645 64.0562353 66.2340645 64.0562353 64.2985806 62.1150588 64.2985806"></polygon>
                    <polygon id="Fill-13" points="56.4261176 66.2340645 58.3672941 66.2340645 58.3672941 64.2985806 56.4261176 64.2985806"></polygon>
                    <polygon id="Fill-14" points="67.804 66.2340645 69.7451765 66.2340645 69.7451765 64.2985806 67.804 64.2985806"></polygon>
                    <polygon id="Fill-15" points="50.7371765 66.2340645 52.6783529 66.2340645 52.6783529 64.2985806 50.7371765 64.2985806"></polygon>
                    <polygon id="Fill-16" points="62.1150588 71.3953548 64.0562353 71.3953548 64.0562353 69.459871 62.1150588 69.459871"></polygon>
                    <polygon id="Fill-17" points="56.4261176 71.3953548 58.3672941 71.3953548 58.3672941 69.459871 56.4261176 69.459871"></polygon>
                    <polygon id="Fill-18" points="67.804 71.3953548 69.7451765 71.3953548 69.7451765 69.459871 67.804 69.459871"></polygon>
                    <polygon id="Fill-19" points="73.4955294 71.3953548 75.4367059 71.3953548 75.4367059 64.3011613 73.4955294 64.3011613"></polygon>
                    <polygon id="Fill-20" points="50.7371765 71.3953548 52.6783529 71.3953548 52.6783529 69.459871 50.7371765 69.459871"></polygon>
                    <path d="M33.9022588,9.08283871 C25.5784941,9.08283871 18.8050824,15.8363871 18.8050824,24.1357419 C18.8050824,32.3267097 25.4024941,39.0131613 33.5787294,39.1860645 L33.5787294,37.2505806 C26.4740235,37.0776774 20.7462588,31.2609032 20.7462588,24.1357419 C20.7462588,16.9021935 26.6474353,11.0183226 33.9022588,11.0183226 C41.0483765,11.0183226 46.8822588,16.7292903 47.0530824,23.8131613 L48.9942588,23.8131613 C48.8208471,15.6609032 42.1173176,9.08283871 33.9022588,9.08283871" id="Fill-21"></path>
                    <path d="M35.1169176,18.0495484 L34.8736235,17.9876129 L34.8736235,15.7889032 L32.9324471,15.7889032 L32.9324471,17.9876129 L32.6891529,18.0495484 C30.8100941,18.5243871 29.5004471,20.0289032 29.5004471,21.7114839 C29.5004471,23.6185806 30.8592706,25.5411613 33.9030353,25.5411613 C35.4197412,25.5411613 36.3618588,26.2689032 36.3618588,27.4353548 C36.3618588,28.4624516 35.2359765,29.332129 33.9030353,29.332129 C32.7098588,29.332129 31.6823294,28.6379355 31.4778588,27.7579355 L29.5159765,27.7579355 C29.6712706,29.3063226 30.9317412,30.6534194 32.6865647,31.0972903 L32.9298588,31.1592258 L32.9298588,33.3605161 L34.8710353,33.3605161 L34.8710353,31.1592258 L35.1169176,31.0972903 C36.9933882,30.6250323 38.3030353,29.1205161 38.3030353,27.4353548 C38.3030353,25.1824516 36.4938588,23.6056774 33.9030353,23.6056774 C32.3371529,23.6056774 31.4416235,22.9166452 31.4416235,21.7114839 C31.4416235,20.6843871 32.5675059,19.8172903 33.9030353,19.8172903 C35.0936235,19.8172903 36.1211529,20.5089032 36.3256235,21.3889032 L38.2875059,21.3889032 C38.1348,19.8379355 36.8717412,18.4908387 35.1169176,18.0495484" id="Fill-23"></path>
                    <polygon id="Fill-25" points="16.1764706 45.1682581 38.0263529 45.1682581 38.0263529 43.2327742 16.1764706 43.2327742"></polygon>
                    <polygon id="Fill-27" points="16.1764706 51.2095484 38.0263529 51.2095484 38.0263529 49.2740645 16.1764706 49.2740645"></polygon>
                    <polygon id="Fill-28" points="16.1764706 63.2869677 38.0263529 63.2869677 38.0263529 61.3514839 16.1764706 61.3514839"></polygon>
                    <polygon id="Fill-29" points="16.1764706 57.2482581 38.0263529 57.2482581 38.0263529 55.3127742 16.1764706 55.3127742"></polygon>
                    <polygon id="Fill-30" points="16.1764706 69.3256774 34.2345882 69.3256774 34.2345882 67.3901935 16.1764706 67.3901935"></polygon>
                    <path d="M45.0922353,77.3463226 L81.0816471,77.3463226 L81.0816471,33.8211613 L45.0922353,33.8211613 L45.0922353,77.3463226 Z M4.39482353,77.3463226 L0,77.3463226 L0,79.2818065 L87.3529412,79.2818065 L87.3529412,77.3463226 L83.0228235,77.3463226 L83.0228235,31.8856774 L43.1510588,31.8856774 L43.1510588,77.3463226 L6.336,77.3463226 L6.336,6.616 C6.336,4.03535484 8.44282353,1.93470968 11.0336471,1.93470968 L60.2851765,1.93470968 L59.8529412,2.46116129 C58.8642353,3.67406452 58.3388235,5.10890323 58.3388235,6.616 L58.3388235,26.8482581 L60.28,26.8482581 L60.28,6.616 C60.28,4.03535484 62.3868235,1.93470968 64.9750588,1.93470968 C67.5632941,1.93470968 69.6701176,4.03535484 69.6701176,6.616 L69.6701176,16.179871 L65.296,16.179871 L65.296,18.1153548 L71.6112941,18.1153548 L71.6112941,6.616 C71.6112941,2.99793548 68.6581176,0.0327741935 65.0242353,0.00438709677 L64.7032941,-0.000774193548 L11.0336471,-0.000774193548 C7.37388235,-0.000774193548 4.39482353,2.96954839 4.39482353,6.616 L4.39482353,77.3463226 Z" id="Fill-31"></path>
                </g>
            </g>
        </g>
    </g>
</svg>