<?xml version="1.0" encoding="UTF-8"?>
<svg width="90px" height="80px" viewBox="0 0 90 80" version="1.1" xmlns="http://www.w3.org/2000/svg" xmlns:xlink="http://www.w3.org/1999/xlink">
    <!-- Generator: Sketch 54.1 (76490) - https://sketchapp.com -->
    <title>Group 8</title>
    <desc>Created with Sketch.</desc>
    <g id="Desktop" stroke="none" stroke-width="1" fill="none" fill-rule="evenodd">
        <g id="Our-Specialties" transform="translate(-450.000000, -962.000000)" fill="#B89D57">
            <g id="text-and-icon" transform="translate(387.000000, 962.000000)">
                <g id="Group-8" transform="translate(63.000000, 0.000000)">
                    <path d="M78.6296875,55.0073143 L78.6296875,23.3181714 L78.6296875,2.34902857 C83.672225,2.91931429 87.6057,7.22902857 87.6057,12.4427429 L87.6057,60.2416 C85.5661625,57.3433143 82.3368,55.3478857 78.6296875,55.0073143 M77.4921875,77.5593143 L16.318575,77.5593143 L16.318575,24.4610286 L76.3546875,24.4610286 L76.3546875,56.0987429 C76.3546875,56.7296 76.8642875,57.2416 77.4921875,57.2416 C83.0682125,57.2416 87.6057,61.7981714 87.6057,67.3993143 C87.6057,73.0016 83.0682125,77.5593143 77.4921875,77.5593143 M77.4921875,0.000457142857 C76.8642875,0.000457142857 76.3546875,0.511314286 76.3546875,1.14331429 L76.3546875,22.1753143 L15.181075,22.1753143 C14.5520375,22.1753143 14.043575,22.6873143 14.043575,23.3181714 L14.043575,78.7021714 C14.043575,79.3330286 14.5520375,79.8450286 15.181075,79.8450286 L77.4921875,79.8450286 C83.9713875,79.8450286 89.296025,74.8187429 89.8272375,68.4450286 C89.84885,68.3593143 89.8807,68.2758857 89.8807,68.1833143 L89.8807,12.4427429 C89.8807,5.58217143 84.322875,0.000457142857 77.4921875,0.000457142857" id="Fill-1"></path>
                    <path d="M2.275,6.19874286 L7.2151625,6.19874286 L7.2151625,13.1301714 L2.2761375,13.1301714 L2.275,6.19874286 Z M14.8785,6.19874286 L14.8773625,13.1301714 L9.4901625,13.1301714 L9.4901625,6.19874286 L14.8785,6.19874286 Z M55.207425,12.6238857 L55.207425,6.70617143 L63.0482125,9.66731429 L55.207425,12.6238857 Z M52.932425,13.1301714 L17.1523625,13.1301714 L17.1535,6.19874286 L52.932425,6.19874286 L52.932425,13.1301714 Z M16.0148625,15.4158857 C16.016,15.4158857 16.0171375,15.4158857 16.018275,15.4158857 L54.069925,15.4158857 C54.206425,15.4158857 54.3417875,15.3907429 54.4691875,15.3427429 L66.48915,10.8113143 L69.7776625,10.8101714 C70.4067,10.8101714 70.9151625,10.2981714 70.9151625,9.66731429 C70.9151625,9.03531429 70.4055625,8.52445714 69.7776625,8.52445714 L69.776525,8.52445714 L66.4902875,8.5256 L54.470325,3.98617143 C54.3417875,3.93702857 54.206425,3.91302857 54.069925,3.91302857 L16.016,3.91302857 L8.3526625,3.91302857 L1.1375,3.91302857 C0.8360625,3.91302857 0.546,4.03302857 0.3332875,4.24788571 C0.1194375,4.4616 0,4.75302857 0,5.05588571 L0.0011375,14.2730286 C0.0011375,14.9038857 0.5107375,15.4158857 1.1386375,15.4158857 L8.34925,15.4158857 C8.3503875,15.4158857 8.351525,15.4158857 8.3526625,15.4158857 L16.0148625,15.4158857 Z" id="Fill-4"></path>
                    <path d="M64.9474962,49.4889143 L64.9474962,53.4500571 L54.0582087,53.4500571 L54.0582087,49.4889143 L62.2459337,49.4889143 L63.3834337,49.4889143 L64.9474962,49.4889143 Z M29.5564587,41.6923429 L44.4690837,41.6923429 L44.4690837,34.9757714 L29.5564587,34.9757714 L29.5564587,41.6923429 Z M63.3834337,32.6900571 L27.2814587,32.6900571 L27.2814587,55.7357714 L32.5833462,55.7357714 L32.5833462,68.1872 L34.8583462,68.1872 L34.8583462,55.7357714 L46.7042712,55.7357714 L46.7042712,53.4500571 L33.7208462,53.4500571 L29.5564587,53.4500571 L29.5564587,43.9780571 L46.7440837,43.9780571 L46.7440837,34.9757714 L61.1084337,34.9757714 L61.1084337,47.2032 L51.7832087,47.2032 L51.7832087,55.7357714 L64.9474962,55.7357714 L64.9474962,65.5746286 L41.5832462,65.5746286 L41.5832462,67.8603429 L67.2224962,67.8603429 L67.2224962,54.5929143 L67.2224962,53.4500571 L67.2224962,47.2032 L63.3834337,47.2032 L63.3834337,32.6900571 Z" id="Fill-6"></path>
                </g>
            </g>
        </g>
    </g>
</svg>