<?xml version="1.0" encoding="UTF-8"?>
<svg width="94px" height="80px" viewBox="0 0 94 80" version="1.1" xmlns="http://www.w3.org/2000/svg" xmlns:xlink="http://www.w3.org/1999/xlink">
    <!-- Generator: Sketch 54.1 (76490) - https://sketchapp.com -->
    <title>Group 6</title>
    <desc>Created with Sketch.</desc>
    <g id="Desktop" stroke="none" stroke-width="1" fill="none" fill-rule="evenodd">
        <g id="Our-Specialties" transform="translate(-449.000000, -1130.000000)" fill="#B89D57">
            <g id="text-and-icon" transform="translate(387.000000, 1130.000000)">
                <g id="Group-6" transform="translate(62.000000, 0.000000)">
                    <path d="M48.7846395,33.1478154 L48.5422184,32.8278154 L51.4376658,29.9465846 L49.7901921,28.3084308 L46.9046395,31.1798154 L46.5805868,30.9176615 C43.45385,28.3884308 40.3877184,28.2087385 38.1675868,30.4155077 C35.6543237,32.9164308 36.2381132,36.4832 39.7297184,39.9588923 C41.3870868,41.6068923 42.2034026,42.9939692 42.2269026,44.1988923 C42.2466921,45.2758154 41.6257974,45.8924308 41.29185,46.2247385 C40.4260605,47.0875077 39.5664553,47.3447385 38.5089553,47.0530462 C37.4836132,46.7712 36.3011921,45.9687385 34.9950868,44.6690462 C33.9029553,43.5835077 33.1348763,42.2419692 32.8875079,40.9902769 C32.76135,40.3527385 32.6648763,39.1675077 33.4329553,38.4032 L34.2554553,37.5847385 L32.6104553,35.9453538 L31.7867184,36.7650462 C30.6686132,37.8776615 30.2369553,39.5822769 30.6042974,41.4382769 C30.8504289,42.6875077 31.4465868,43.9638154 32.3247447,45.1281231 L32.5659289,45.4481231 L29.4936132,48.5053538 L31.13985,50.1435077 L34.1936132,47.1047385 L34.5189026,47.3779692 C35.7000868,48.3625846 36.80335,48.9878154 37.8892974,49.2856615 C39.7495079,49.7988923 41.4847974,49.3090462 42.9380868,47.8628923 C44.7686132,46.0413538 45.9844289,42.9065846 41.3759553,38.3207385 C38.1280079,35.0875077 38.7340605,33.1281231 39.8138237,32.0536615 C40.7006395,31.1699692 41.8533763,30.9730462 43.14835,31.4862769 C44.0636132,31.8493538 45.0605079,32.5632 46.1105868,33.6093538 C48.4618237,35.9478154 48.8167974,38.7379692 47.6739553,39.8752 L46.8502184,40.6936615 L48.4964553,42.3318154 L49.3201921,41.5133538 C51.2682184,39.5748923 51.0480605,36.1348923 48.7846395,33.1478154" id="Fill-1"></path>
                    <path d="M63.1840789,20.3659077 C63.4809211,20.4656 63.7963158,20.5677538 64.1302632,20.6711385 L64.7585789,20.8656 L64.3627895,21.3886769 C64.2180789,21.5794462 64.1129474,21.7185231 63.9867895,21.8440615 C63.1791316,22.6477538 62.1043158,23.0896 60.9602368,23.0896 C59.8161579,23.0896 58.7413421,22.6477538 57.9336842,21.8440615 C56.2651842,20.1837538 56.2651842,17.4809846 57.9336842,15.8206769 C59.5502368,14.2108308 62.3727105,14.2120615 63.9867895,15.8206769 C64.5235789,16.3548308 64.9094737,17.0428308 65.0999474,17.8071385 L65.2978421,18.6083692 L62.8241579,17.8009846 L62.0808158,19.9966769 L63.1840789,20.3659077 Z M92.5269211,32.8446769 C90.8522368,29.2040615 86.8102368,26.1111385 80.1721053,23.3874462 L79.8851579,23.2692923 L79.8851579,16.4262154 L63.3770263,0.000369230769 L44.2876053,0.000369230769 L0,44.0692923 L35.5975526,79.4932923 L79.8851579,35.4219077 L79.8851579,29.3332923 L77.5574211,29.3332923 L77.5574211,34.4631385 L35.5975526,76.2157538 L3.29247368,44.0692923 L45.2511053,2.31544615 L62.4135263,2.31544615 L77.5574211,17.3862154 L77.5574211,22.3732923 L76.939,22.1554462 C73.8691579,21.0723692 70.8450789,20.2071385 68.1784474,19.4428308 L67.5526053,19.2619077 L67.5563158,18.9111385 C67.5785789,17.1179077 66.8946053,15.4379077 65.6330263,14.1825231 C64.3850526,12.9394462 62.7252105,12.2563692 60.9602368,12.2563692 C59.1952632,12.2563692 57.5354211,12.9394462 56.2874474,14.1825231 C53.7111053,16.7462154 53.7111053,20.9172923 56.2874474,23.4822154 C57.5341842,24.7216 59.1927895,25.4046769 60.9602368,25.4046769 C62.7264474,25.4046769 64.3862895,24.7216 65.6330263,23.4822154 C66.0683947,23.0477538 66.4493421,22.5123692 66.7956579,21.8440615 L66.9712895,21.5092923 L67.5365263,21.6705231 C74.9835526,23.8022154 87.4484474,27.3702154 90.4106842,33.8083692 C91.3803684,35.9166769 91.2863684,38.1628308 90.1237368,40.6772923 C89.9468684,41.0219077 85.8813684,48.6539077 76.0422895,45.8231385 L74.9229474,45.5006769 L74.2773158,47.7259077 L75.3954211,48.0471385 C77.0663947,48.5283692 78.6940789,48.7720615 80.2351842,48.7720615 C88.5492368,48.7720615 92.1818421,41.7591385 92.2177105,41.6889846 C93.6722368,38.5456 93.7786053,35.5659077 92.5269211,32.8446769 L92.5269211,32.8446769 Z" id="Fill-3"></path>
                </g>
            </g>
        </g>
    </g>
</svg>