<?xml version="1.0" encoding="UTF-8"?>
<svg width="107px" height="80px" viewBox="0 0 107 80" version="1.1" xmlns="http://www.w3.org/2000/svg" xmlns:xlink="http://www.w3.org/1999/xlink">
    <!-- Generator: Sketch 54.1 (76490) - https://sketchapp.com -->
    <title>Group</title>
    <desc>Created with Sketch.</desc>
    <g id="Desktop" stroke="none" stroke-width="1" fill="none" fill-rule="evenodd">
        <g id="Our-Specialties" transform="translate(-718.000000, -776.000000)" fill="#B89D57">
            <g id="text-and-icon" transform="translate(663.000000, 776.000000)">
                <g id="Group" transform="translate(55.000000, 0.000000)">
                    <path d="M49.6035747,52.2412539 L57.5258247,52.2412539 L57.5258247,40.0677328 L49.6035747,40.0677328 L49.6035747,52.2412539 Z M59.7758247,53.3680145 L59.7758247,38.9409722 C59.7758247,38.3190004 59.2729497,37.8142117 58.6508247,37.8142117 L48.4785747,37.8142117 C47.8564497,37.8142117 47.3535747,38.3190004 47.3535747,38.9409722 L47.3535747,53.3680145 C47.3535747,53.9911131 47.8564497,54.494775 48.4785747,54.494775 L58.6508247,54.494775 C59.2729497,54.494775 59.7758247,53.9911131 59.7758247,53.3680145 L59.7758247,53.3680145 Z" id="Fill-1"></path>
                    <path d="M72.9248247,52.2412539 L80.8515747,52.2412539 L80.8515747,40.0677328 L72.9248247,40.0677328 L72.9248247,52.2412539 Z M71.7998247,54.494775 L81.9765747,54.494775 C82.5986997,54.494775 83.1015747,53.9911131 83.1015747,53.3680145 L83.1015747,38.9409722 C83.1015747,38.3190004 82.5986997,37.8142117 81.9765747,37.8142117 L71.7998247,37.8142117 C71.1788247,37.8142117 70.6748247,38.3190004 70.6748247,38.9409722 L70.6748247,53.3680145 C70.6748247,53.9911131 71.1788247,54.494775 71.7998247,54.494775 L71.7998247,54.494775 Z" id="Fill-3"></path>
                    <path d="M86.5496997,77.1167469 L91.0789497,77.1167469 L91.0789497,63.0682962 L86.5496997,63.0682962 L86.5496997,77.1167469 Z M79.7580747,77.1167469 L84.2996997,77.1167469 L84.2996997,63.0682962 L79.7580747,63.0682962 L79.7580747,77.1167469 Z M61.4858247,77.1167469 L61.4858247,65.0390004 C61.4858247,62.8091412 63.2970747,60.99393 65.5223247,60.99393 C67.7509497,60.99393 69.5621997,62.8091412 69.5621997,65.0390004 L69.5621997,77.1167469 L61.4858247,77.1167469 Z M39.3694497,44.1668877 L39.3694497,29.9054793 L91.0789497,29.9054793 L91.0789497,60.814775 L78.6330747,60.814775 C78.0109497,60.814775 77.5080747,61.3195638 77.5080747,61.9415356 L77.5080747,77.1167469 L71.8121997,77.1167469 L71.8121997,65.0390004 C71.8121997,61.5663243 68.9906997,58.7404088 65.5223247,58.7404088 C62.0561997,58.7404088 59.2358247,61.5663243 59.2358247,65.0390004 L59.2358247,77.1167469 L39.3694497,77.1167469 L39.3694497,44.1668877 Z M7.73557472,77.1167469 L37.1194497,77.1167469 L37.1194497,45.2936483 L7.73557472,45.2936483 L7.73557472,77.1167469 Z M9.29819972,18.8846342 L15.8963247,18.8846342 L15.8963247,26.946606 C15.8963247,27.5685779 16.3991997,28.0733666 17.0213247,28.0733666 L22.1096997,28.0733666 C22.7318247,28.0733666 23.2346997,27.5685779 23.2346997,26.946606 L23.2346997,18.8846342 L46.3759497,18.8846342 L38.2714497,27.1437891 L28.8889497,36.6164652 C28.4513247,37.0581553 28.4535747,37.7713948 28.8956997,38.2097046 C29.1150747,38.4271694 29.4008247,38.5364652 29.6876997,38.5364652 C29.9768247,38.5364652 30.2659497,38.4249159 30.4864497,38.2029441 L37.1194497,31.506606 L37.1194497,43.0401272 L6.61057472,43.0401272 L2.60444972,43.0401272 L9.29819972,18.8846342 Z M18.1463247,25.8187187 L20.9846997,25.8187187 L20.9846997,10.6964652 L18.1463247,10.6964652 L18.1463247,25.8187187 Z M63.9113247,4.4587187 C64.0541997,4.31449335 64.1318247,4.1387187 64.1813247,3.95618349 L65.4041997,2.70998631 L91.0789497,27.4153384 L91.0789497,27.6519581 L40.9376997,27.6519581 L63.9113247,4.4587187 Z M100.138575,77.1167469 L104.68245,77.1167469 L104.68245,63.0682962 L100.138575,63.0682962 L100.138575,77.1167469 Z M93.3469497,77.1167469 L97.8885747,77.1167469 L97.8885747,63.0682962 L93.3469497,63.0682962 L93.3469497,77.1167469 Z M105.80745,60.814775 L93.3289497,60.814775 L93.3289497,29.5809722 L100.8642,36.8316764 C101.08245,37.0412539 101.3637,37.1449159 101.643825,37.1449159 C101.938575,37.1449159 102.233325,37.0288595 102.453825,36.7990004 C102.8847,36.3505497 102.870075,35.6373103 102.422325,35.205761 L93.1185747,26.2536483 C93.0735747,26.1871694 93.0409497,26.1116764 92.9813247,26.0553384 L66.1590747,0.311113067 C66.0476997,0.205197574 65.9205747,0.125197574 65.7844497,0.0744933491 C65.7371997,0.0553384195 65.6865747,0.0587187012 65.6370747,0.0474510956 C65.5459497,0.0260426449 65.4548247,-0.00212636921 65.3614497,0.000127151917 C65.3051997,0.00125391248 65.2511997,0.0249158843 65.1949497,0.0339299688 C65.1094497,0.0497046167 65.0228247,0.054211659 64.9418247,0.0891412364 C64.8866997,0.112803208 64.8428247,0.159000391 64.7910747,0.191676448 C64.7179497,0.23674687 64.6414497,0.271676448 64.5784497,0.334775039 L48.5876997,16.6311131 L23.2346997,16.6311131 L23.2346997,9.56970462 C23.2346997,8.94773279 22.7318247,8.44294405 22.1096997,8.44294405 L17.0213247,8.44294405 C16.3991997,8.44294405 15.8963247,8.94773279 15.8963247,9.56970462 L15.8963247,16.6311131 L8.44207472,16.6311131 C7.93694972,16.6311131 7.49257472,16.9691412 7.35757472,17.4559018 L0.0405747234,43.8660426 C-0.0528002766,44.2051976 0.0169497234,44.5691412 0.229574723,44.8497046 C0.442199723,45.1291412 0.774074723,45.2936483 1.12507472,45.2936483 L5.48557472,45.2936483 L5.48557472,78.2435074 C5.48557472,78.8654793 5.98844972,79.370268 6.61057472,79.370268 L38.2444497,79.370268 L60.3608247,79.370268 L70.6871997,79.370268 L78.6330747,79.370268 L92.2039497,79.370268 L105.80745,79.370268 C106.429575,79.370268 106.93245,78.8654793 106.93245,78.2435074 L106.93245,61.9415356 C106.93245,61.3195638 106.429575,60.814775 105.80745,60.814775 L105.80745,60.814775 Z" id="Fill-4"></path>
                    <path d="M18.4658247,67.2925215 L26.3903247,67.2925215 L26.3903247,55.1178736 L18.4658247,55.1178736 L18.4658247,67.2925215 Z M27.5153247,52.8654793 L17.3408247,52.8654793 C16.7186997,52.8654793 16.2158247,53.3691412 16.2158247,53.9922398 L16.2158247,68.4192821 C16.2158247,69.0412539 16.7186997,69.5460426 17.3408247,69.5460426 L27.5153247,69.5460426 C28.1374497,69.5460426 28.6403247,69.0412539 28.6403247,68.4192821 L28.6403247,53.9922398 C28.6403247,53.3691412 28.1374497,52.8654793 27.5153247,52.8654793 L27.5153247,52.8654793 Z" id="Fill-5"></path>
                    <polygon id="Fill-6" points="64.4006997 20.6919581 66.6506997 20.6919581 66.6506997 15.5201272 64.4006997 15.5201272"></polygon>
                </g>
            </g>
        </g>
    </g>
</svg>