<?xml version="1.0" encoding="UTF-8"?>
<svg width="75px" height="80px" viewBox="0 0 75 80" version="1.1" xmlns="http://www.w3.org/2000/svg" xmlns:xlink="http://www.w3.org/1999/xlink">
    <!-- Generator: Sketch 54.1 (76490) - https://sketchapp.com -->
    <title>Group 58</title>
    <desc>Created with Sketch.</desc>
    <g id="Desktop" stroke="none" stroke-width="1" fill="none" fill-rule="evenodd">
        <g id="Our-Specialties---Slide-2" transform="translate(-460.000000, -776.000000)" fill="#B89D57">
            <g id="text-and-icon" transform="translate(387.000000, 776.000000)">
                <g id="Group-58" transform="translate(73.000000, 0.000000)">
                    <polygon id="Fill-1" points="6.74894366 17.5610526 9.72042254 17.5610526 9.72042254 15.4557895 6.74894366 15.4557895"></polygon>
                    <polygon id="Fill-2" points="6.74894366 23.8926316 9.72042254 23.8926316 9.72042254 21.7873684 6.74894366 21.7873684"></polygon>
                    <polygon id="Fill-3" points="6.74894366 30.2242105 9.72042254 30.2242105 9.72042254 28.1189474 6.74894366 28.1189474"></polygon>
                    <polygon id="Fill-4" points="6.74894366 36.5557895 9.72042254 36.5557895 9.72042254 34.4505263 6.74894366 34.4505263"></polygon>
                    <polygon id="Fill-5" points="6.74894366 42.8884211 9.72042254 42.8884211 9.72042254 40.7831579 6.74894366 40.7831579"></polygon>
                    <polygon id="Fill-6" points="6.74894366 49.1989474 9.72042254 49.1989474 9.72042254 47.0936842 6.74894366 47.0936842"></polygon>
                    <polygon id="Fill-7" points="6.74894366 55.5305263 9.72042254 55.5305263 9.72042254 53.4252632 6.74894366 53.4252632"></polygon>
                    <polygon id="Fill-8" points="6.74894366 61.8621053 9.72042254 61.8621053 9.72042254 59.7568421 6.74894366 59.7568421"></polygon>
                    <polygon id="Fill-9" points="6.74894366 68.1936842 9.72042254 68.1936842 9.72042254 66.0884211 6.74894366 66.0884211"></polygon>
                    <polygon id="Fill-10" points="14.6672535 17.5610526 17.6387324 17.5610526 17.6387324 15.4557895 14.6672535 15.4557895"></polygon>
                    <polygon id="Fill-11" points="14.6672535 23.8926316 17.6387324 23.8926316 17.6387324 21.7873684 14.6672535 21.7873684"></polygon>
                    <polygon id="Fill-12" points="14.6672535 30.2242105 17.6387324 30.2242105 17.6387324 28.1189474 14.6672535 28.1189474"></polygon>
                    <polygon id="Fill-13" points="14.6672535 36.5557895 17.6387324 36.5557895 17.6387324 34.4505263 14.6672535 34.4505263"></polygon>
                    <polygon id="Fill-14" points="14.6672535 42.8884211 17.6387324 42.8884211 17.6387324 40.7831579 14.6672535 40.7831579"></polygon>
                    <polygon id="Fill-15" points="14.6672535 49.1978947 17.6387324 49.1978947 17.6387324 47.0926316 14.6672535 47.0926316"></polygon>
                    <polygon id="Fill-16" points="14.6672535 55.5294737 17.6387324 55.5294737 17.6387324 53.4242105 14.6672535 53.4242105"></polygon>
                    <polygon id="Fill-17" points="14.6672535 61.86 17.6387324 61.86 17.6387324 59.7547368 14.6672535 59.7547368"></polygon>
                    <polygon id="Fill-18" points="14.6672535 68.1926316 17.6387324 68.1926316 17.6387324 66.0873684 14.6672535 66.0873684"></polygon>
                    <polygon id="Fill-19" points="22.5855634 49.1978947 25.5570423 49.1978947 25.5570423 47.0926316 22.5855634 47.0926316"></polygon>
                    <polygon id="Fill-20" points="22.5855634 55.5294737 25.5570423 55.5294737 25.5570423 53.4242105 22.5855634 53.4242105"></polygon>
                    <polygon id="Fill-21" points="22.5855634 61.86 25.5570423 61.86 25.5570423 59.7547368 22.5855634 59.7547368"></polygon>
                    <polygon id="Fill-22" points="22.5855634 68.1926316 25.5570423 68.1926316 25.5570423 66.0873684 22.5855634 66.0873684"></polygon>
                    <polygon id="Fill-23" points="22.5855634 17.5610526 25.5570423 17.5610526 25.5570423 15.4557895 22.5855634 15.4557895"></polygon>
                    <polygon id="Fill-24" points="22.5855634 23.8926316 25.5570423 23.8926316 25.5570423 21.7873684 22.5855634 21.7873684"></polygon>
                    <polygon id="Fill-25" points="22.5855634 30.2242105 25.5570423 30.2242105 25.5570423 28.1189474 22.5855634 28.1189474"></polygon>
                    <polygon id="Fill-26" points="22.5855634 36.5557895 25.5570423 36.5557895 25.5570423 34.4505263 22.5855634 34.4505263"></polygon>
                    <polygon id="Fill-27" points="22.5855634 42.8884211 25.5570423 42.8884211 25.5570423 40.7831579 22.5855634 40.7831579"></polygon>
                    <polygon id="Fill-28" points="30.5017606 17.5610526 33.4732394 17.5610526 33.4732394 15.4557895 30.5017606 15.4557895"></polygon>
                    <path d="M72.6789085,77.4547368 L53.9183451,77.4547368 L53.9183451,73.7715789 L51.805669,73.7715789 L51.805669,77.4547368 L47.1017958,77.4547368 L33.0440493,77.4547368 L33.0440493,23.3452632 L51.805669,23.3452632 L51.805669,62.5221053 L53.9183451,62.5221053 L53.9183451,23.3452632 L72.6789085,23.3452632 L72.6789085,77.4547368 Z M2.11235915,7.53473684 L14.5750352,7.53473684 L33.5637676,7.53473684 L46.0454577,7.53473684 L46.0454577,21.24 L31.9877113,21.24 C31.4046127,21.24 30.9313732,21.7115789 30.9313732,22.2926316 L30.9313732,77.4547368 L2.11235915,77.4547368 L2.11235915,7.53473684 Z M15.6313732,5.42947368 L32.5074296,5.42947368 L32.5074296,2.10526316 L15.6313732,2.10526316 L15.6313732,5.42947368 Z M73.7352465,21.24 L48.1581338,21.24 L48.1581338,6.48210526 C48.1581338,5.90105263 47.6859507,5.42947368 47.1017958,5.42947368 L34.6201056,5.42947368 L34.6201056,1.05263158 C34.6201056,0.471578947 34.1468662,0 33.5637676,0 L14.5750352,0 C13.9908803,0 13.5186972,0.471578947 13.5186972,1.05263158 L13.5186972,5.42947368 L1.05602113,5.42947368 C0.472922535,5.42947368 -0.000316901408,5.90105263 -0.000316901408,6.48210526 L-0.000316901408,78.5073684 C-0.000316901408,79.0884211 0.472922535,79.56 1.05602113,79.56 L31.9877113,79.56 L47.1017958,79.56 L73.7352465,79.56 C74.3194014,79.56 74.7915845,79.0884211 74.7915845,78.5073684 L74.7915845,22.2926316 C74.7915845,21.7115789 74.3194014,21.24 73.7352465,21.24 L73.7352465,21.24 Z" id="Fill-29"></path>
                    <polygon id="Fill-32" points="37.056338 31.9357895 40.0278169 31.9357895 40.0278169 29.8305263 37.056338 29.8305263"></polygon>
                    <polygon id="Fill-34" points="37.056338 38.2673684 40.0278169 38.2673684 40.0278169 36.1621053 37.056338 36.1621053"></polygon>
                    <polygon id="Fill-35" points="37.056338 44.6 40.0278169 44.6 40.0278169 42.4947368 37.056338 42.4947368"></polygon>
                    <polygon id="Fill-36" points="37.0552817 57.2631579 40.0267606 57.2631579 40.0267606 55.1578947 37.0552817 55.1578947"></polygon>
                    <polygon id="Fill-37" points="44.9725352 31.9357895 47.9461268 31.9357895 47.9461268 29.8305263 44.9725352 29.8305263"></polygon>
                    <polygon id="Fill-38" points="44.9725352 38.2673684 47.9461268 38.2673684 47.9461268 36.1621053 44.9725352 36.1621053"></polygon>
                    <polygon id="Fill-39" points="44.9725352 44.6 47.9461268 44.6 47.9461268 42.4947368 44.9725352 42.4947368"></polygon>
                    <polygon id="Fill-40" points="47.9458099 50.9317895 47.9458099 48.8265263 44.9722183 48.8265263 37.0549648 48.8265263 37.0549648 50.9317895 44.9722183 50.9317895"></polygon>
                    <polygon id="Fill-41" points="44.9725352 57.2631579 47.9461268 57.2631579 47.9461268 55.1578947 44.9725352 55.1578947"></polygon>
                    <polygon id="Fill-42" points="37.0552817 63.5747368 40.0267606 63.5747368 40.0267606 61.4694737 37.0552817 61.4694737"></polygon>
                    <polygon id="Fill-43" points="44.9746479 63.5747368 47.9461268 63.5747368 47.9461268 61.4694737 44.9746479 61.4694737"></polygon>
                    <polygon id="Fill-44" points="57.7869718 31.9357895 60.7584507 31.9357895 60.7584507 29.8305263 57.7869718 29.8305263"></polygon>
                    <polygon id="Fill-45" points="57.7869718 38.2673684 60.7584507 38.2673684 60.7584507 36.1621053 57.7869718 36.1621053"></polygon>
                    <polygon id="Fill-46" points="57.7869718 44.6 60.7584507 44.6 60.7584507 42.4947368 57.7869718 42.4947368"></polygon>
                    <polygon id="Fill-47" points="57.7869718 57.2631579 60.7584507 57.2631579 60.7584507 55.1578947 57.7869718 55.1578947"></polygon>
                    <polygon id="Fill-48" points="65.703169 31.9357895 68.6767606 31.9357895 68.6767606 29.8305263 65.703169 29.8305263"></polygon>
                    <polygon id="Fill-49" points="65.703169 38.2673684 68.6767606 38.2673684 68.6767606 36.1621053 65.703169 36.1621053"></polygon>
                    <polygon id="Fill-50" points="65.703169 44.6 68.6767606 44.6 68.6767606 42.4947368 65.703169 42.4947368"></polygon>
                    <polygon id="Fill-51" points="67.1898592 50.9317895 68.6761268 50.9317895 68.6761268 48.8265263 67.1898592 48.8265263 65.7025352 48.8265263 57.786338 48.8265263 57.786338 50.9317895 65.7025352 50.9317895"></polygon>
                    <polygon id="Fill-52" points="65.7021127 57.2631579 68.6757042 57.2631579 68.6757042 55.1578947 65.7021127 55.1578947"></polygon>
                    <polygon id="Fill-53" points="57.7869718 63.5747368 60.7584507 63.5747368 60.7584507 61.4694737 57.7869718 61.4694737"></polygon>
                    <polygon id="Fill-54" points="65.7042254 63.5747368 68.6757042 63.5747368 68.6757042 61.4694737 65.7042254 61.4694737"></polygon>
                    <polygon id="Fill-55" points="38.178169 17.5610526 41.1496479 17.5610526 41.1496479 15.4557895 38.178169 15.4557895"></polygon>
                    <polygon id="Fill-56" points="40.9869718 70.6136842 64.7387324 70.6136842 64.7387324 68.5084211 40.9869718 68.5084211"></polygon>
                </g>
            </g>
        </g>
    </g>
</svg>