<?xml version="1.0" encoding="UTF-8"?>
<svg width="107px" height="80px" viewBox="0 0 107 80" version="1.1" xmlns="http://www.w3.org/2000/svg" xmlns:xlink="http://www.w3.org/1999/xlink">
    <!-- Generator: Sketch 54.1 (76490) - https://sketchapp.com -->
    <title>Group 13</title>
    <desc>Created with Sketch.</desc>
    <g id="Desktop" stroke="none" stroke-width="1" fill="none" fill-rule="evenodd">
        <g id="Our-Specialties" transform="translate(-166.000000, -962.000000)" fill="#B89D57">
            <g id="text-and-icon" transform="translate(111.000000, 962.000000)">
                <g id="Group-13" transform="translate(55.000000, 0.000000)">
                    <path d="M25.4275232,19.3157838 L40.2821495,4.45848649 L40.2821495,19.3157838 L25.4275232,19.3157838 Z M80.286099,0.763351351 L41.3672808,0.763351351 C41.3456646,0.763351351 41.3251293,0.775243243 41.3024323,0.776324324 C41.2019172,0.78172973 41.1046444,0.80227027 41.0095333,0.834702703 C40.9814323,0.845513514 40.9533313,0.852 40.9252303,0.864972973 C40.8063414,0.917945946 40.6939374,0.984972973 40.5988263,1.08010811 L22.0510788,19.6325405 C21.9559677,19.7265946 21.8900384,19.839027 21.8370788,19.9557838 C21.8230283,19.9860541 21.8154626,20.0152432 21.8046545,20.0465946 C21.7722303,20.1395676 21.7538566,20.2357838 21.7473717,20.3341622 C21.7462909,20.3568649 21.734402,20.3774054 21.734402,20.4001081 L21.734402,36.3147027 L23.8960182,36.3147027 L23.8960182,21.4779459 L41.3629576,21.4779459 C41.9606444,21.4779459 42.4437657,20.9936216 42.4437657,20.3968649 L42.4437657,2.92551351 L79.2052909,2.92551351 L79.2052909,77.412 L23.8960182,77.412 L23.8960182,48.4768649 L21.734402,48.4768649 L21.734402,78.4930811 C21.734402,79.0909189 22.2175232,79.5741622 22.8152101,79.5741622 L80.286099,79.5741622 C80.8837859,79.5741622 81.3669071,79.0909189 81.3669071,78.4930811 L81.3669071,1.84443243 C81.3669071,1.24767568 80.8837859,0.763351351 80.286099,0.763351351 L80.286099,0.763351351 Z" id="Fill-1"></path>
                    <path d="M92.5885051,75.7074595 L97.8671717,75.7074595 L97.8671717,71.1301622 L92.5885051,71.1301622 L92.5885051,75.7074595 Z M91.2115556,47.4598919 L91.2115556,13.0252973 L95.1111111,6.72583784 L99.0149899,13.0252973 L99.0149899,47.4598919 L91.2115556,47.4598919 Z M91.2115556,68.968 L91.2115556,49.6220541 L99.0149899,49.6220541 L99.0149899,68.968 L98.9479798,68.968 L91.507697,68.968 L91.2115556,68.968 Z M104.005081,52.2263784 L104.005081,68.968 L101.176606,68.968 L101.176606,48.540973 L101.176606,12.7182703 L101.176606,12.4101622 L96.1919192,4.36475676 L96.1919192,0.000432432432 L94.030303,0.000432432432 L94.030303,4.36475676 L89.2109798,12.1485405 C89.2109798,12.1496216 89.2109798,12.1496216 89.209899,12.1507027 L89.0499394,12.4101622 L89.0499394,12.7182703 L89.0499394,48.540973 L89.0499394,70.0490811 L89.0499394,71.1301622 L90.1307475,71.1301622 L90.4268889,71.1301622 L90.4268889,76.7885405 C90.4268889,77.3863784 90.9100101,77.8696216 91.507697,77.8696216 L98.9479798,77.8696216 C99.5456667,77.8696216 100.028788,77.3863784 100.028788,76.7885405 L100.028788,71.1301622 L100.095798,71.1301622 L101.176606,71.1301622 L105.085889,71.1301622 C105.682495,71.1301622 106.166697,70.6469189 106.166697,70.0490811 L106.166697,52.2263784 L104.005081,52.2263784 Z" id="Fill-3"></path>
                    <path d="M67.4038394,29.4345946 L52.0758192,29.4345946 L52.0758192,19.9383784 L59.7387485,12.667027 L67.4038394,19.987027 L67.4038394,29.4345946 Z M71.6600616,21.0627027 L69.3352434,18.8432432 C69.298496,18.7924324 69.2747182,18.7340541 69.2282434,18.6897297 L60.4855869,10.3902703 C60.4045263,10.3135135 60.310496,10.2648649 60.2153848,10.2183784 C60.1872838,10.2043243 60.1656677,10.1794595 60.1375667,10.1686486 C60.0359707,10.1286486 59.9278899,10.1156757 59.8198091,10.1081081 C59.7938697,10.1059459 59.7700919,10.0940541 59.7441525,10.0940541 C59.6490414,10.092973 59.5582535,10.12 59.4663848,10.1448649 C59.4274758,10.1556757 59.3864051,10.1524324 59.3496576,10.1664865 C59.2707586,10.1978378 59.2026677,10.2551351 59.1313343,10.3048649 C59.0891828,10.3351351 59.0394657,10.3502703 59.0005566,10.387027 L58.9983949,10.3891892 C58.9983949,10.3891892 58.9973141,10.3891892 58.9973141,10.3902703 L58.947597,10.4367568 L47.7396172,20.9956757 C47.3040515,21.4054054 47.284597,22.0897297 47.6942232,22.5232432 C48.1038495,22.9589189 48.7858394,22.9772973 49.2214051,22.5697297 L49.914203,21.9156757 L49.914203,30.5156757 C49.914203,31.1124324 50.3984051,31.5967568 50.9950111,31.5967568 L68.4846475,31.5967568 C69.0823343,31.5967568 69.5654556,31.1124324 69.5654556,30.5156757 L69.5654556,22.0508108 L70.1674657,22.6259459 C70.3760616,22.8259459 70.6451828,22.9254054 70.9132232,22.9254054 C71.1985566,22.9254054 71.4817283,22.812973 71.6957283,22.5902703 C72.1075162,22.1589189 72.091304,21.4745946 71.6600616,21.0627027 L71.6600616,21.0627027 Z" id="Fill-5"></path>
                    <polygon id="Fill-6" points="58.6154646 24.8198919 60.7770808 24.8198919 60.7770808 20.8458378 58.6154646 20.8458378"></polygon>
                    <path d="M35.9875586,36.9171892 C38.9165485,36.9171892 41.2997303,39.300973 41.2997303,42.2307027 C41.2997303,45.1604324 38.9165485,47.5442162 35.9875586,47.5442162 C33.0585687,47.5442162 30.6753869,45.1604324 30.6753869,42.2307027 C30.6753869,39.300973 33.0585687,36.9171892 35.9875586,36.9171892 L35.9875586,36.9171892 Z M28.6013162,43.3117838 C29.1276697,46.9215135 32.2349929,49.7063784 35.9875586,49.7063784 C40.1086798,49.7063784 43.4613465,46.3528649 43.4613465,42.2307027 C43.4613465,38.1085405 40.1086798,34.755027 35.9875586,34.755027 C32.2349929,34.755027 29.1276697,37.5388108 28.6013162,41.1496216 L-0.000108080808,41.1496216 L-0.000108080808,43.3117838 L3.32337677,43.3117838 L3.32337677,51.0404324 L5.48499293,51.0404324 L5.48499293,43.3117838 L8.01084141,43.3117838 L8.01084141,47.4869189 L10.1724576,47.4869189 L10.1724576,43.3117838 L28.6013162,43.3117838 Z" id="Fill-7"></path>
                    <polygon id="Fill-8" points="50.1786768 39.4761081 64.1967576 39.4761081 64.1967576 37.3139459 50.1786768 37.3139459"></polygon>
                    <polygon id="Fill-9" points="49.6220606 48.2512432 71.0015253 48.2512432 71.0015253 46.0890811 49.6220606 46.0890811"></polygon>
                    <polygon id="Fill-10" points="46.0121616 54.6998919 71.0015253 54.6998919 71.0015253 52.5377297 46.0121616 52.5377297"></polygon>
                    <polygon id="Fill-11" points="31.756303 61.1431351 71.0026061 61.1431351 71.0026061 58.980973 31.756303 58.980973"></polygon>
                    <polygon id="Fill-12" points="64.1956768 70.6144865 71.0015253 70.6144865 71.0015253 68.4523243 64.1956768 68.4523243"></polygon>
                </g>
            </g>
        </g>
    </g>
</svg>