<?xml version="1.0" encoding="UTF-8"?>
<svg width="72px" height="80px" viewBox="0 0 72 80" version="1.1" xmlns="http://www.w3.org/2000/svg" xmlns:xlink="http://www.w3.org/1999/xlink">
    <!-- Generator: Sketch 54.1 (76490) - https://sketchapp.com -->
    <title>Group 17</title>
    <desc>Created with Sketch.</desc>
    <g id="Desktop" stroke="none" stroke-width="1" fill="none" fill-rule="evenodd">
        <g id="Our-Specialties" transform="translate(-737.000000, -962.000000)" fill="#B89D57">
            <g id="text-and-icon" transform="translate(663.000000, 962.000000)">
                <g id="Group-17" transform="translate(74.000000, 0.000000)">
                    <path d="M59.84,1.93548387 C62.5316129,1.93548387 64.7225806,4.12645161 64.7225806,6.82064516 L64.7225806,12.3870968 L60.16,12.3870968 L60.16,14.3225806 L66.6580645,14.3225806 L66.6580645,6.82064516 C66.6580645,3.08903226 63.6232258,0.0335483871 59.8916129,0.00516129032 L59.5716129,0 L6.81806452,0 C3.05806452,0 0,3.06064516 0,6.82064516 L0,79.3548387 L54.9574194,79.3548387 L54.9574194,70.4335484 L53.0219355,70.4335484 L53.0219355,77.4193548 L1.93548387,77.4193548 L1.93548387,6.82064516 C1.93548387,4.12645161 4.12645161,1.93548387 6.81806452,1.93548387 L55.083871,1.93548387 L54.6374194,2.46451613 C53.5819355,3.72387097 53.0219355,5.23096774 53.0219355,6.82064516 L53.0219355,20.6090323 L54.9574194,20.6090323 L54.9574194,6.82064516 C54.9574194,4.12645161 57.1483871,1.93548387 59.84,1.93548387" id="Fill-1"></path>
                    <path d="M46.9442581,55.115871 L52.0513548,58.0655484 L46.4049032,67.8487742 L42.3765161,68.9274839 L41.2978065,64.8990968 L46.9442581,55.115871 Z M61.5094194,29.8900645 L64.4590968,24.7829677 L69.5661935,27.7326452 L66.6165161,32.8371613 L61.5094194,29.8900645 Z M40.7584516,70.3623226 C40.8694194,70.7829677 41.2539355,71.0797419 41.6900645,71.0797419 C41.7803871,71.0797419 41.8629677,71.0694194 41.9429677,71.0461935 L47.2926452,69.6113548 C47.5378065,69.5468387 47.752,69.3816774 47.8810323,69.1623226 L71.7261935,27.8590968 C71.8552258,27.6371613 71.8887742,27.3765161 71.8216774,27.1261935 C71.7545806,26.8784516 71.5945806,26.6694194 71.3700645,26.5403871 L68.8178065,25.0642581 L71.7649032,19.9623226 L70.0874839,18.9945806 L67.1429677,24.0965161 L64.588129,22.6203871 C64.1261935,22.352 63.5352258,22.5145806 63.2642581,22.9765161 L59.8345806,28.9223226 L54.6139355,25.908129 L47.2642581,38.6384516 L48.9390968,39.6061935 L55.3236129,28.5507097 L65.6487742,34.5145806 L53.0190968,56.3907097 L47.912,53.4436129 L57.8552258,36.2203871 L56.1803871,35.2526452 L39.4190968,64.2771613 C39.2926452,64.4990968 39.2565161,64.7649032 39.3236129,65.0126452 L40.7584516,70.3623226 Z" id="Fill-3"></path>
                    <polygon id="Fill-5" points="14.9016774 69.6018065 17.4410323 67.0650323 18.875871 67.0650323 22.8913548 71.0779355 25.9649032 71.0779355 25.9649032 69.1424516 23.6939355 69.1424516 19.6784516 65.1295484 16.6384516 65.1295484 14.0990968 67.6663226 11.2836129 67.6663226 9.57264516 69.379871 7.15458065 69.379871 7.15458065 71.3153548 10.3726452 71.3153548 12.0861935 69.6018065"></polygon>
                    <polygon id="Fill-7" points="30.5058065 71.0787097 33.7574194 71.0787097 33.7574194 69.1432258 30.5058065 69.1432258"></polygon>
                    <polygon id="Fill-9" points="7.15354839 14.3225806 27.1896774 14.3225806 27.1896774 12.3870968 7.15354839 12.3870968"></polygon>
                    <polygon id="Fill-10" points="7.15354839 20.4774194 35.0219355 20.4774194 35.0219355 18.5419355 7.15354839 18.5419355"></polygon>
                    <polygon id="Fill-11" points="7.15354839 32.7819355 43.7651613 32.7819355 43.7651613 30.8464516 7.15354839 30.8464516"></polygon>
                    <polygon id="Fill-12" points="7.15354839 26.6270968 41.6258065 26.6270968 41.6258065 24.6916129 7.15354839 24.6916129"></polygon>
                    <polygon id="Fill-13" points="7.15354839 38.9367742 41.0890323 38.9367742 41.0890323 37.0012903 7.15354839 37.0012903"></polygon>
                    <polygon id="Fill-14" points="7.15354839 45.0916129 39.9354839 45.0916129 39.9354839 43.156129 7.15354839 43.156129"></polygon>
                    <polygon id="Fill-15" points="7.15354839 51.2412903 37.403871 51.2412903 37.403871 49.3058065 7.15354839 49.3058065"></polygon>
                    <polygon id="Fill-16" points="7.15354839 57.396129 35.0219355 57.396129 35.0219355 55.4606452 7.15354839 55.4606452"></polygon>
                </g>
            </g>
        </g>
    </g>
</svg>